<?xml version="1.0" encoding="utf-8"?>
<!-- Generator: Adobe Illustrator 24.3.0, SVG Export Plug-In . SVG Version: 6.00 Build 0)  -->
<svg version="1.1" id="Layer_1" xmlns="http://www.w3.org/2000/svg" xmlns:xlink="http://www.w3.org/1999/xlink" x="0px" y="0px"
	 viewBox="0 0 574.47 188.43" style="enable-background:new 0 0 574.47 188.43;" xml:space="preserve">
<style type="text/css">
	.st0{fill-rule:evenodd;clip-rule:evenodd;fill:#FF8500;}
	.st1{fill:#00194c;}
	.st2{fill:#0C016F;}
</style>
<g>
	<g>
		<path class="st0" d="M135.85,78.54c0,2.67,1.81,2.89,3.53,2.89c1.45,0,13.51-12.71,15.33-14.53c2.54-2.54,4.84-4.84,7.38-7.38
			c1.68-1.68,6.82-5.99,6.82-8.27c0-2.41-2.69-3.4-4.4-2.17L151.98,61.6C150.64,62.95,135.85,76.91,135.85,78.54z"/>
		<path class="st0" d="M51.92,50.93c0,2.31,4.44,5.88,6.82,8.27l18.94,18.94c1.85,1.85,2.44,3.29,5.06,3.29
			c1.06,0,2.25-1.5,2.25-2.57c0-1.93-1.89-3.33-2.97-4.41L63.23,55.66c-1.31-1.31-2.38-2.38-3.69-3.69
			c-2.26-2.26-2.39-3.29-5.38-3.29C53.33,48.68,51.92,50.38,51.92,50.93z"/>
		<path class="st0" d="M149.66,94.59c0,6.69,7.05,1.37,10.92-0.64l20.98-11.45c2.63-1.32,3.74-1.79,3.74-3.96
			c0-1.81-1.17-2.57-2.89-2.57c-1.37,0-3.18,1.43-4.38,2.04L153.08,91.6C151.93,92.16,149.66,93.16,149.66,94.59z"/>
		<path class="st0" d="M35.54,83.99c0,3,3.63,3.62,8.07,5.1l21.66,7.88c1.72,0.66,3.02,1.57,4.74,0.63
			c1.75-0.95,2.56-4.05-1.03-5.32L42.83,82.8C40.75,81.98,35.54,79.75,35.54,83.99z"/>
		<path class="st0" d="M35.54,114.17c0,1.32,1.08,2.89,2.25,2.89h28.57c2.76,0,2.91-5.46,0-5.46H38.11
			C36.59,111.61,35.54,112.91,35.54,114.17z"/>
		<path class="st0" d="M155.12,117.06h27.61c1.54,0,2.39-1.07,2.57-2.27v-0.92c-0.17-1.2-1.03-2.27-2.57-2.27h-28.25
			C152.02,111.61,151.14,117.06,155.12,117.06z"/>
		<path class="st0" d="M119.48,65.05c0,1.61,1.4,2.89,2.89,2.89c2.27,0,2.88-2.66,3.64-4.39c0.91-2.04,1.67-3.82,2.5-5.84
			c0.74-1.81,1.55-3.68,2.41-5.61c0.69-1.55,2.36-4.93,2.36-6.31c0-2.89-3.6-3.85-5.19-1.34l-2.93,6.7
			C124.36,53.05,119.48,64,119.48,65.05z"/>
		<path class="st0" d="M84.99,45.15c0,3.19,5.58,14.55,7.11,18.25c0.52,1.26,2.14,6.68,5.6,3.77c0.34-0.29,1.09-1.43,1.09-1.8
			l-8.44-20.46C88.91,41.93,84.99,43.29,84.99,45.15z"/>
		<path class="st0" d="M111.3,63.19c1.65-1.62,1.1-7.29,1.14-10.66l0.29-26.79c0.03-2.62,0.65-4.04-1.19-5.92
			c-0.74-0.76-2.64-0.56-3.41,0.19c-1.38,1.35-1.06,3.68-1.08,5.21l-0.29,26.56c-0.02,1.85-0.04,3.37-0.06,5.22
			c-0.03,3.19-0.68,4.01,1.41,6.15C108.7,63.75,110.91,63.57,111.3,63.19z"/>
		<path class="st0" d="M84.2,126.63c14.42,0,28.83,0,43.25,0c0-1.03,0.14-7.57-0.08-8.25c-0.09-0.36-0.17-0.73-0.26-1.09
			c-0.09-0.44-0.17-0.77-0.37-1.1c-0.17-0.28-0.35-0.55-0.52-0.83c-0.2-0.25-0.04,0.01-0.29-0.32c-0.83-0.81-1.65-1.61-2.48-2.42
			c-0.23-0.23-0.1-0.15-0.35-0.38c-0.62-0.56-1.25-1.12-1.87-1.68c-0.24-0.24-0.42-0.45-0.68-0.67c-0.32-0.27-0.42-0.31-0.73-0.62
			c-0.65-0.74-1.3-1.48-1.95-2.21c-0.1-0.17-0.16-0.28-0.3-0.44c-0.16-0.19-0.14-0.12-0.34-0.39c-1.83-2.37-3.67-4.74-5.5-7.11
			c-0.37-0.61-0.44-0.53-0.57-0.9c0.32,0.08,0.49,0.27,0.68,0.42c0.02,0.02,0.05,0.04,0.07,0.05c0.66,0.36,1.32,0.73,1.97,1.09
			c1.47,0.65,0.73,0.33,2.28,0.66c0.56,0.12,0.34,0.25,1.25,0.24c0.88-0.01,3.14-0.81,5.2-0.44c0.81,0.14,1.7,0.5,2.33,0.98
			c0.23,0.14,0.46,0.27,0.7,0.41c0.23,0.16,0.12,0.14,0.44,0.3c1.73,0.86,2.98,1.62,5.14,1.27c0.54-0.2,1.08-0.39,1.61-0.59
			c0.19-0.09,0.05-0.02,0.22-0.15c0.21-0.16,0.41-0.32,0.62-0.48c0.25-0.24,0.08-0.13,0.35-0.39c0.68-0.79,1.37-1.57,2.05-2.36
			c1.03-1.07,1.96-2.07,2.05-3.57c0-0.21,0-0.42,0-0.63c-0.02-0.35-0.06-0.61-0.21-0.89c-0.13-0.27-0.15-0.23-0.28-0.46
			c-0.16-0.25-0.32-0.5-0.48-0.74c-3.45-2.72-6.9-5.44-10.34-8.16c-0.29-0.26-0.5-0.42-0.79-0.68c-0.69-0.53-1.39-1.06-2.08-1.59
			c-0.19-0.16-0.21-0.19-0.4-0.34c-0.53-0.41-1.06-0.82-1.59-1.23c-0.29-0.25-0.52-0.36-0.83-0.64c-0.28-0.26-0.51-0.42-0.8-0.67
			c-0.23-0.2-0.22-0.16-0.42-0.31c-2.82-2.31-7.31-5.59-6.24-9.85c0.08-0.34,0.39-1.63-0.26-1.63c-2.36,0.01-4.63,1.51-5.89,3.44
			c-0.19,0.3-0.37,0.61-0.56,0.91c-0.14,0.22-0.11,0.13-0.26,0.35c-0.19,0.3-0.39,0.59-0.58,0.89c-2.27,3.03-5.36,1.9-8.28,2.62
			c-16.32,7.41-13.45,35.67-13.61,50.57C84.2,126.62,84.2,126.62,84.2,126.63z"/>
		<path class="st0" d="M81.08,146.16c0.1,0.03,3.26,0.06,7.94,0.07c12.09,0,24.17,0,36.26,0c3.77-0.01,6.21-0.03,6.28-0.05
			c0.49-0.13,1.28-0.82,1.55-1.27c0.26-0.43,0.21-1,0.21-1.48c-0.04-0.38-0.14-0.75-0.32-1.04c-1.63-2.64-3.73-8.58-5.38-10.3
			c-0.35-0.36-0.72-0.47-1.17-0.67c-0.04-0.01-0.1-0.02-0.16-0.02c-12.95,0-25.89,0.13-38.84,0c-0.34,0-0.69,0-1.03,0
			c-1.7,0.22-2.26,2.47-2.97,3.65c-0.69,1.36-1.37,2.71-2.06,4.07C79.84,142.44,77.9,143.65,81.08,146.16z"/>
	</g>
	<g>
		<path class="st1" d="M236.81,69.69l19.45,25.7h-16.83L223.6,73.17v22.22h-13.99V45.12h13.99v21.73l15.98-21.73h16.69L236.81,69.69
			z"/>
		<path class="st1" d="M314.62,95.39h-13.99l-18.46-28.04v28.04h-13.99v-50.2h13.99l18.46,28.4v-28.4h13.99V95.39z"/>
		<path class="st1" d="M343.66,45.12v50.27h-13.99V45.12H343.66z"/>
		<path class="st1" d="M398.33,49.38c4.12,3.12,6.6,7.34,7.46,12.64h-14.7c-0.76-1.37-1.87-2.46-3.34-3.27
			c-1.47-0.8-3.19-1.21-5.18-1.21c-3.41,0-6.12,1.15-8.13,3.44c-2.01,2.3-3.02,5.36-3.02,9.19c0,4.36,1.08,7.66,3.23,9.9
			c2.15,2.25,5.31,3.37,9.48,3.37c2.37,0,4.45-0.57,6.25-1.7c1.8-1.14,3.22-2.82,4.26-5.04h-13.92v-9.94h25.49v13.84
			c-1.8,4.17-4.67,7.73-8.63,10.69c-3.95,2.96-8.94,4.44-14.95,4.44c-5.11,0-9.59-1.08-13.42-3.23c-3.83-2.15-6.78-5.17-8.84-9.05
			c-2.06-3.88-3.09-8.31-3.09-13.28s1.03-9.38,3.09-13.24c2.06-3.86,4.98-6.86,8.77-9.02c3.79-2.15,8.24-3.23,13.35-3.23
			C388.93,44.69,394.21,46.26,398.33,49.38z"/>
		<path class="st1" d="M464.71,45.12v50.27H450.8V75.08h-17.04v20.31h-13.99V45.12h13.99v18.82h17.04V45.12H464.71z"/>
		<path class="st1" d="M517.61,45.12v11.15h-13.56v39.12h-13.92V56.27h-13.42V45.12H517.61z"/>
	</g>
	<g>
		<path class="st1" d="M230.59,110.56v4.6h-15.24v10.9h11.88v4.54h-11.88v15.86h-5.89v-35.9H230.59z"/>
		<path class="st1" d="M259.57,110.56v35.9h-5.89v-35.9H259.57z"/>
		<path class="st1" d="M314.43,146.46h-5.89l-17.72-26.81v26.81h-5.89V110.5h5.89l17.72,26.76V110.5h5.89V146.46z"/>
		<path class="st1" d="M362.99,110.56v4.6h-9.56v31.3h-5.89v-31.3h-9.61v-4.6H362.99z"/>
		<path class="st1" d="M392.43,115.1V126h12.4v4.54h-12.4v11.31h13.95v4.6h-19.84V110.5h19.84v4.6H392.43z"/>
		<path class="st1" d="M457.8,112.91c2.98,1.88,5.14,4.54,6.48,7.98h-7.08c-0.93-1.79-2.22-3.14-3.87-4.05s-3.56-1.37-5.73-1.37
			c-2.38,0-4.49,0.53-6.35,1.6c-1.86,1.07-3.31,2.58-4.37,4.55c-1.05,1.96-1.58,4.24-1.58,6.82c0,2.58,0.52,4.86,1.58,6.84
			c1.05,1.98,2.51,3.5,4.37,4.57c1.86,1.07,3.98,1.6,6.35,1.6c2.17,0,4.08-0.46,5.73-1.37s2.94-2.26,3.87-4.06h7.08
			c-1.34,3.44-3.5,6.1-6.48,7.96c-2.98,1.86-6.38,2.79-10.2,2.79c-3.38,0-6.46-0.78-9.25-2.35c-2.79-1.57-5-3.75-6.64-6.53
			c-1.64-2.79-2.45-5.94-2.45-9.45s0.82-6.66,2.45-9.45c1.64-2.79,3.86-4.97,6.66-6.53c2.81-1.57,5.88-2.35,9.22-2.35
			C451.42,110.09,454.82,111.03,457.8,112.91z"/>
		<path class="st1" d="M517.44,110.56v35.9h-5.89V130.6h-16.89v15.86h-5.89v-35.9h5.89v15.5h16.89v-15.5H517.44z"/>
	</g>
</g>
</svg>
